<svg width="32" height="32" viewBox="0 0 32 32" fill="none" xmlns="http://www.w3.org/2000/svg">
<g clip-path="url(#clip0_1_11)">
<rect width="32" height="32" fill="white"/>
<path d="M11.152 25V8.2H17.992C18.776 8.488 19.472 8.992 20.08 9.712C20.688 10.432 20.992 11.304 20.992 12.328C20.992 14.136 20.4 15.4 19.216 16.12V16.216C20.688 17.032 21.424 18.312 21.424 20.056C21.424 22.056 20.408 23.704 18.376 25H11.152ZM14.416 15.136H16.792C17.496 14.704 17.848 14.048 17.848 13.168C17.848 12.288 17.52 11.592 16.864 11.08H14.416V15.136ZM14.416 22.216H16.888C17.176 22.008 17.432 21.68 17.656 21.232C17.896 20.784 18.016 20.336 18.016 19.888C18.016 19.44 17.92 19.032 17.728 18.664C17.536 18.296 17.296 18.024 17.008 17.848H14.416V22.216Z" fill="black"/>
<path d="M22.61 5.2H21.1V4H25.48V5.2H23.97V11H22.61V5.2Z" fill="black"/>
</g>
<defs>
<clipPath id="clip0_1_11">
<rect width="32" height="32" fill="white"/>
</clipPath>
</defs>
</svg>
