<svg width="32" height="32" viewBox="0 0 32 32" fill="none" xmlns="http://www.w3.org/2000/svg">
<path d="M21.7384 21.68H25.2584V24H20.1784C19.2984 23.1733 18.6318 22.1267 18.1784 20.86C17.7251 19.5933 17.4984 18.2933 17.4984 16.96C17.4984 15.6133 17.7518 14.32 18.2584 13.08C18.7651 11.84 19.5184 10.8133 20.5184 10H25.2584V12.4H21.7384C21.3784 12.8133 21.0651 13.48 20.7984 14.4C20.5451 15.32 20.4184 16.2 20.4184 17.04C20.4184 17.88 20.5451 18.76 20.7984 19.68C21.0651 20.6 21.3784 21.2667 21.7384 21.68Z" fill="black"/>
<path d="M8.86 10L13.3 24H10.72L6.2 10H8.86Z" fill="black"/>
</svg>
