<svg width="34" height="24" viewBox="0 0 34 24" fill="none" xmlns="http://www.w3.org/2000/svg">
<g clip-path="url(#clip0_1_3)">
<path d="M29.45 13.835V13.91C30.82 14.34 31.505 15.275 31.505 16.715C31.505 17.445 31.31 18.1 30.92 18.68C30.54 19.26 30.115 19.7 29.645 20H26.225V18.26H28.805C28.925 18.15 29.06 17.93 29.21 17.6C29.36 17.27 29.435 16.935 29.435 16.595C29.435 15.965 29.21 15.5 28.76 15.2H27.545V13.565L29.36 11.465L29.285 11.3H26.285V9.5H29.9C30.75 9.86 31.175 10.43 31.175 11.21C31.175 11.81 30.9 12.385 30.35 12.935L29.45 13.835Z" fill="white"/>
<path d="M6 18H3C2.52 18 2 17.621 2 17V3C2 2.519 2.38 2 3 2H17C17.621 2 18 2.522 18 3V6H21C21.621 6 22 6.522 22 7V21C22 21.621 21.478 22 21 22H7C6.52 22 6 21.621 6 21V18ZM7.5 7.5V20.5H20.5V7.5H7.5ZM16.5 6V3.5H3.5V16.5H6V7C6 6.519 6.38 6 7 6H16.5Z" fill="white"/>
</g>
<defs>
<clipPath id="clip0_1_3">
<rect width="34" height="24" fill="white"/>
</clipPath>
</defs>
</svg>
