<svg width="32" height="32" viewBox="0 0 32 32" fill="none" xmlns="http://www.w3.org/2000/svg">
<path d="M21.5627 21.68H25.0827V24H20.0027C19.1227 23.1733 18.456 22.1267 18.0027 20.86C17.5493 19.5933 17.3227 18.2933 17.3227 16.96C17.3227 15.6133 17.576 14.32 18.0827 13.08C18.5893 11.84 19.3427 10.8133 20.3427 10H25.0827V12.4H21.5627C21.2027 12.8133 20.8893 13.48 20.6227 14.4C20.3693 15.32 20.2427 16.2 20.2427 17.04C20.2427 17.88 20.3693 18.76 20.6227 19.68C20.8893 20.6 21.2027 21.2667 21.5627 21.68Z" fill="black"/>
<path d="M9.08 9.36H10.44L10.52 11.42L12.32 10.9L12.72 12.16L10.98 12.8L12.1 14.52L11.04 15.3L9.76 13.68L8.48 15.3L7.42 14.52L8.56 12.84L6.8 12.16L7.2 10.9L8.98 11.42L9.08 9.36Z" fill="black"/>
</svg>
