<svg width="30" height="11" viewBox="0 0 30 11" fill="none" xmlns="http://www.w3.org/2000/svg">
<path d="M0.72 0.499999H4.71C5.34 0.71 5.875 1.1 6.315 1.67C6.765 2.23 6.99 2.92 6.99 3.74C6.99 5.08 6.46 6.065 5.4 6.695L6.915 11H4.815L3.54 7.175H2.745V11H0.72V0.499999ZM2.745 2.3V5.495H4.035C4.205 5.455 4.39 5.285 4.59 4.985C4.8 4.675 4.905 4.315 4.905 3.905C4.905 3.495 4.815 3.135 4.635 2.825C4.465 2.515 4.295 2.34 4.125 2.3H2.745ZM12.5435 11L12.2285 9.335H9.85852L9.54352 11H7.50352L9.52852 0.499999H12.6335L14.5535 11H12.5435ZM11.0135 2.45L10.4285 5.945L10.0985 7.73H11.9735L11.6285 5.945L11.0435 2.45H11.0135ZM20.107 11L17.302 5.195L17.227 5.225L17.317 6.995V11H15.427V0.499999H16.942L19.702 6.53L19.777 6.5L19.612 4.655V0.499999H21.502V11H20.107ZM24.9817 9.26H26.3317C26.6117 8.91 26.8317 8.4 26.9917 7.73C27.1617 7.06 27.2467 6.395 27.2467 5.735C27.2467 4.165 26.9517 3.02 26.3617 2.3H24.9817V9.26ZM22.9417 11V0.499999H27.2917C28.7117 1.76 29.4217 3.47 29.4217 5.63C29.4217 7.78 28.7567 9.57 27.4267 11H22.9417Z" fill="black"/>
</svg>
